<svg viewBox="0 0 141.5 62.6">
	<path d="M88.6 34.6h8.2l.1-26.7h-8.3c-.1 0 0 26.7 0 26.7zm23.3-19.3c.1-.2.5-.6 1.5-.6.6 0 1.1 0 1.5.1.5.1 1 .1 1.5.2l1.1-.1V7.8l-.7-.2c-.6-.2-1.3-.2-2-.2-.7-.1-1.5-.1-2.4-.1-3.2 0-5.7.9-7.4 2.7-1.6 1.8-2.4 4.4-2.4 7.8v1.7l-3.6.1v5.9l3.6-.1v9.3h8.2v-9.2l5.8.1v-5.9l-5.1-.1-.1-1.7c0-1.7.3-2.4.5-2.6zm-32.2 5.2c-1.2-.9-2.7-1.5-4.3-1.9-1.5-.3-3.3-.5-5.3-.5-10.8 0-13.5 5.4-13.7 9.9v1l8.4-.1v-.7c0-1.1.4-1.9 1.1-2.4.8-.6 2.2-.9 3.9-.9 2.2 0 3.2.5 3.7.9s.8.9 1 1.6c.1.3.2.7.2 1.3v1h-1.2c-6 0-10.4.9-13.3 2.6-1.3.7-2.3 1.3-3.1 2.3h26.7l.1-4.7c0-2.5-.6-4.4-1.2-5.9-.8-1.5-1.7-2.7-3-3.5zM41.4 18c-2.7 0-5.5 1.2-7.7 2.9 0-.2-.2-.8-.2-1.1 0-1.2.1-2.4.1-3.7l-.1-8.2h-8.2v26.8h8.3v-5.8c1-1.1 2.4-1.9 3.4-2.4 1-.6 2-.8 3.1-.8.7 0 1.3.1 1.7.2.4.2.6.3.9.6.2.3.4.7.6 1.3.2.6.2 1.5.2 2.4l-.1 4.4h8.9l-.1-4.9c0-7.6-3.7-11.7-10.8-11.7zm-11 37.4c-1.1 0-2-.2-2.8-.4-.8-.2-1.5-.6-2-1.1-.6-.5-1-1.1-1.2-1.7-.2-.6-.4-1.4-.5-2.1h1.9c.1.6.2 1.1.5 1.5s.6.8 1 1.1c.4.2.9.5 1.4.6.5.2 1.1.2 1.7.2.6 0 1.1-.1 1.5-.2.5-.2.9-.3 1.2-.6s.6-.5.8-.8c.2-.3.2-.7.2-1.1s-.1-.8-.2-1.1c-.2-.3-.4-.6-.8-.8-.4-.2-.9-.4-1.5-.6-.6-.2-1.4-.3-2.3-.6-.9-.2-1.6-.4-2.3-.6-.6-.2-1.1-.6-1.5-.9-.4-.3-.7-.7-.9-1.2-.2-.4-.3-1-.3-1.5 0-.6.2-1.2.4-1.7.2-.6.6-1 1.1-1.4.5-.4 1.1-.6 1.8-.9.6-.2 1.5-.3 2.3-.3.9 0 1.7.1 2.3.3.7.2 1.3.5 1.9.9.5.4.9.9 1.2 1.5s.5 1.2.5 1.9h-2c-.2-1.9-1.5-2.8-3.8-2.8-1.1 0-2 .2-2.7.6-.6.4-1 1-1 1.7 0 .3.1.6.2.8.1.2.3.4.6.6.2.2.6.3 1.1.5.5.2 1.1.3 1.7.4l1.5.3c.5.1 1 .2 1.5.4s.9.3 1.3.6c.4.2.8.5 1.1.8.3.3.6.7.7 1.1.2.4.2 1 .2 1.5 0 .6-.2 1.3-.4 1.9-.3.6-.6 1.1-1.2 1.5-.5.4-1.1.7-1.8 1-.8.6-1.5.7-2.4.7zm22.1-14h-5.1v13.7h-2V41.4h-5.1v-1.9h12.3l-.1 1.9zm11.5 14c-1 0-1.8-.1-2.4-.3-.6-.2-1.2-.5-1.7-.8-.5-.3-.8-.7-1.1-1.1-.2-.4-.5-.9-.6-1.5-.2-.5-.2-1.1-.2-1.5 0-.6-.1-1.1-.1-1.6v-8.9h2v9c0 1.1.1 1.9.2 2.5.2.6.4 1.1.8 1.5.3.4.7.6 1.3.7.5.2 1.1.2 1.7.2.6 0 1.2-.1 1.7-.2.5-.2.9-.4 1.3-.7.3-.4.6-.9.7-1.5.2-.6.2-1.5.2-2.5v-9h2.1v9c0 1.1-.1 2-.2 2.9-.2.8-.5 1.5-1 2.2-.5.6-1.1 1.1-1.9 1.4-.5 0-1.6.2-2.8.2zm25.1-8.1c0 5.3-2.6 7.8-7.9 7.8h-4.9V39.6h4.9c5.3 0 7.9 2.5 7.9 7.7zm-2.1 0c0-.9-.1-1.7-.2-2.4-.2-.7-.5-1.4-.9-1.9s-1.1-.9-1.8-1.1c-.7-.2-1.7-.4-2.8-.4h-2.8v11.8h2.8c1.1 0 2-.2 2.8-.4.7-.2 1.4-.6 1.8-1.2.5-.5.7-1.1 1-1.9.1-.7.1-1.6.1-2.5zm10.5 7.9h-2V39.6h2v15.6zm12.6-15.9c1.1 0 2.1.2 3 .6s1.7 1 2.3 1.6c.6.7 1.1 1.5 1.5 2.5.4 1 .6 2.1.6 3.3 0 1.2-.2 2.3-.6 3.2-.4 1-.9 1.9-1.5 2.5-.6.7-1.5 1.3-2.3 1.6-.9.4-1.9.6-3 .6s-2.1-.2-3-.6c-.9-.4-1.7-1-2.3-1.6-.6-.7-1.1-1.5-1.5-2.5-.4-1-.6-2.1-.6-3.3 0-1.2.2-2.3.6-3.3.4-1 .9-1.9 1.5-2.5.6-.7 1.5-1.2 2.3-1.6 1-.3 1.9-.5 3-.5zm0 14.3c.8 0 1.5-.2 2.1-.4.6-.3 1.2-.7 1.7-1.2.5-.6.8-1.2 1.1-1.9.2-.8.4-1.7.4-2.7s-.2-1.9-.4-2.7c-.2-.8-.6-1.5-1.1-1.9-.5-.6-1.1-1-1.7-1.2-.6-.2-1.4-.4-2.1-.4s-1.5.2-2.1.4c-.6.3-1.2.7-1.7 1.2-.5.6-.8 1.2-1.1 1.9-.2.8-.4 1.6-.4 2.7 0 1 .2 1.9.4 2.7.2.8.6 1.5 1.1 1.9.5.6 1.1 1 1.7 1.2.6.3 1.4.4 2.1.4z"/>
</svg>