<svg xmlns="http://www.w3.org/2000/svg" viewBox="0 0 241.9 36">
	<path d="M224.2 36h-60.7c0-.1-.1-.2-.1-.3l-3-3.9c-.2-.3-.4-.4-.8-.4h-28c-.2.1-.4.1-.5.3-.7.8-1.3 1.7-2 2.6-.4.6-.8 1.2-1.3 1.8H61.2v-29h52.4v6.6H74.4v4.5h39.2v6.7H74.4v4.5h39.2v5.4c.1-.1.2-.1.2-.2.7-1 1.4-1.9 2.1-2.9 1.6-2.1 3.1-4.2 4.7-6.4 1.6-2.1 3.2-4.3 4.8-6.4 1.6-2.1 3.2-4.2 4.7-6.3 1.3-1.8 2.6-3.5 3.9-5.3.2-.3.4-.4.7-.4h21.8c.3 0 .5.1.7.4l4.2 5.7c1.6 2.1 3.2 4.3 4.8 6.4 1.6 2.1 3.2 4.2 4.8 6.4 1.6 2.1 3.2 4.3 4.8 6.4.6.8 1.3 1.7 1.9 2.5h.1V7.1h44.7c2 0 3.9.3 5.7 1 2.4.9 4.4 2.5 5.6 4.8 1.7 3 2.5 6.3 2.2 9.8-.1 1.6-.4 3.2-.9 4.7-.8 2.3-1.8 4.4-3.7 5.9-1.6 1.3-3.5 2.1-5.5 2.5-.6 0-1.1.1-1.7.2zm-33.1-9h27.3c.6 0 1.3 0 1.9-.1.9-.2 1.8-.5 2.3-1.4.6-1.1 1-2.3 1-3.5 0-1.2-.2-2.3-.6-3.4-.6-1.5-1.8-2.3-3.4-2.3h-28.5V27zm-54.8-2.3h18.9c-.6-.8-1.1-1.5-1.6-2.3-1.9-2.6-3.8-5.1-5.7-7.7-.1-.2-.4-.3-.6-.3h-3c-.2 0-.4.1-.5.2l-.9 1.2c-1.8 2.4-3.6 4.8-5.4 7.3-.5.5-.8 1-1.2 1.6zM0 7.1h13.3v9.7h27.8V7.1h13.2V36H41.1V24.6H13.3V36H0V7.1zm241.8-2.2c-.3.6-.5 1.2-.8 1.8-.7 1-1.7 1.5-2.9 1.7-1.3.2-2.4-.2-3.4-1-.7-.6-1.1-1.4-1.3-2.3-.5-2 .8-4.1 2.6-4.8.3-.1.6-.2.8-.3h1.6c.1 0 .1.1.2.1 1 .2 1.8.7 2.4 1.6.4.6.6 1.2.9 1.8-.1.4-.1.9-.1 1.4zm-.8-.7c0-2-1.5-3.5-3.4-3.5s-3.3 1.3-3.4 3.5c0 1.9 1.4 3.5 3.4 3.5 1.9 0 3.4-1.5 3.4-3.5z"/>
	<path d="M236.7 4.6v2h-.7V1.7c.9 0 1.8 0 2.7.2.6.1.9.7.9 1.3 0 .5-.4 1.1-.9 1.3-.1 0-.2.1-.4.1.4.7.8 1.3 1.3 2-.7.2-.7.2-1.1-.4-.3-.4-.5-.9-.8-1.3-.2-.2-.6-.3-.8-.4-.1 0-.1 0-.2.1zm.1-.8h1.4c.3 0 .6-.2.6-.6 0-.4-.1-.7-.5-.8-.5-.1-1 0-1.4 0-.1.6-.1 1-.1 1.4z"/>
</svg>