<svg viewBox="0 0 141.5 62.6">
  <path d="M51.9 22.5c-.7-.3-1.5-.5-2.3-.5-.8 0-1.5.1-2.1.4-1.1.4-2.1 1.1-2.8 1.9-.4-.6-1-1.1-1.6-1.4-.9-.6-1.9-.9-3-.9-1.5 0-2.7.4-3.7 1.2V22.3H33V37.9h3.5v-9.2c0-1.1.3-1.9.9-2.5.6-.6 1.3-.9 2.2-.9.8 0 1.5.3 2 .9.6.6.8 1.4.8 2.5v9.2H46v-9.2c0-1.1.3-1.9.9-2.5.6-.6 1.3-.9 2.2-.9.8 0 1.5.3 2 .9.6.6.8 1.4.8 2.5v9.2h3.5V28.6c0-1.9-.6-3.5-1.8-4.7-.4-.6-1-1-1.7-1.4zM64.2 22.1c-2.3 0-4.2.8-5.7 2.3-1.4 1.5-2.1 3.4-2.1 5.7 0 2.3.7 4.2 2.1 5.7 1.5 1.6 3.4 2.3 5.7 2.3 2.3 0 4.2-.8 5.7-2.3 1.4-1.5 2.1-3.4 2.1-5.7 0-2.3-.7-4.2-2.1-5.7-1.5-1.5-3.4-2.3-5.7-2.3zm3.1 11.4c-.8.9-1.8 1.4-3.1 1.4s-2.4-.4-3.1-1.4c-.8-.9-1.1-2-1.1-3.4s.4-2.5 1.1-3.4c.8-.9 1.8-1.4 3.1-1.4s2.4.4 3.1 1.4c.8.9 1.1 2 1.1 3.4s-.3 2.5-1.1 3.4zM80.5 22.1c-2.3 0-4.2.8-5.7 2.3-1.4 1.5-2.1 3.4-2.1 5.7 0 2.3.7 4.2 2.1 5.7 1.5 1.6 3.4 2.3 5.7 2.3 2.3 0 4.2-.8 5.7-2.3 1.4-1.5 2.1-3.4 2.1-5.7 0-2.3-.7-4.2-2.1-5.7-1.4-1.5-3.3-2.3-5.7-2.3zm3.2 11.4c-.8.9-1.8 1.4-3.1 1.4s-2.4-.4-3.1-1.4c-.8-.9-1.1-2-1.1-3.4s.4-2.5 1.1-3.4c.8-.9 1.8-1.4 3.1-1.4s2.4.4 3.1 1.4c.8.9 1.1 2 1.1 3.4s-.4 2.5-1.1 3.4zM99.3 22.5c-.8-.3-1.7-.4-2.7-.4-1.1 0-2.1.3-2.9.8l-.9.6v-1.2h-3.5V37.9h3.5V29c0-1.1.3-2 1-2.6.7-.7 1.6-1 2.6-1s1.8.3 2.4 1c.6.7.9 1.5.9 2.7V38h3.5v-9c0-2.1-.7-3.8-2-5-.4-.7-1.1-1.2-1.9-1.5zM112.6 22.1c-1.8 0-3.3.5-4.4 1.4v-1.2h-3.5V43.6h3.5v-6.9c1.2 1 2.6 1.5 4.3 1.5 2.3 0 4.2-.8 5.6-2.4 1.4-1.5 2.1-3.4 2.1-5.7 0-2.2-.7-4.1-2.1-5.6-1.4-1.6-3.3-2.4-5.5-2.4zm-3.5 11.4c-.8-.9-1.1-2-1.1-3.4s.4-2.5 1.1-3.4c.8-.9 1.8-1.4 3.1-1.4s2.4.4 3.2 1.4c.8.9 1.2 2 1.2 3.4s-.4 2.5-1.2 3.4c-.8.9-1.9 1.4-3.2 1.4-1.3-.1-2.3-.5-3.1-1.4zM122.3 22.3h-.7V37.9h3.5V22.3h-2.8zM122.2 17.1h-.7v4.2h3.7v-4.2h-3zM138.6 32.1h-.5l-.2.4c-.3.7-.7 1.3-1.3 1.7-.6.4-1.3.6-2 .6-1.5 0-2.6-.4-3.4-1.4-.8-.9-1.2-2-1.2-3.4s.4-2.5 1.2-3.4c.4-.4.8-.8 1.4-1 .5-.2 1.2-.4 2.1-.4.8 0 1.4.2 2 .6.6.4 1 1 1.3 1.7l.2.4H141.9l-.3-.9c-.5-1.5-1.4-2.8-2.6-3.7-1.3-1-2.9-1.4-4.7-1.4-2.3 0-4.2.8-5.6 2.3-1.4 1.5-2.1 3.4-2.1 5.7 0 2.2.7 4.2 2.1 5.7 1.4 1.6 3.3 2.3 5.6 2.3 1.8 0 3.4-.5 4.7-1.4 1.3-.9 2.2-2.2 2.6-3.7l.3-.9h-3.3zM114.1 46.6c-.3.3-.6.5-1 .5-.2 0-.4 0-.6-.1-.2-.1-.3-.2-.4-.4-.1-.2-.2-.3-.3-.6-.1-.2-.1-.5-.1-.7 0-.3 0-.5.1-.8l.3-.6c.1-.2.3-.3.5-.4.2-.1.4-.1.6-.1.2 0 .4 0 .5.1.2.1.3.1.4.3v-1.6h.6V47h-.6v-.4zm0-.6v-1.6c-.3-.3-.6-.4-.9-.4-.3 0-.5.1-.6.3-.2.2-.2.6-.2 1s.1.7.2 1c.1.2.4.3.6.3.2 0 .3 0 .5-.1.1-.1.2-.3.4-.5zM119.7 47.1c-.3 0-.5 0-.7-.1-.2-.1-.4-.2-.5-.3-.1-.2-.3-.3-.3-.6-.1-.2-.1-.5-.1-.8 0-.3 0-.5.1-.7l.3-.6c.1-.2.3-.3.5-.4.2-.1.4-.1.7-.1.2 0 .5 0 .7.1.2.1.4.2.5.4.1.2.2.3.3.6.1.2.1.5.1.8v.1h-2.6c0 .2 0 .4.1.5.1.1.1.3.2.4.1.1.2.2.3.2.1 0 .3.1.4.1h.3c.1 0 .2-.1.3-.1l.2-.2c.1-.1.1-.2.1-.3h.6c0 .2-.1.3-.2.5-.1.1-.2.3-.3.3-.1.1-.3.2-.4.2h-.6zm.9-2.1c0-.3-.2-.6-.3-.7-.2-.2-.4-.2-.6-.2-.1 0-.2 0-.3.1-.1 0-.2.1-.3.2-.1.1-.2.2-.2.3-.1.1-.1.3-.1.4h1.8zM125.4 47.1c-.9 0-1.4-.4-1.5-1.1h.6c0 .4.3.6.9.6h.3c.1 0 .2-.1.2-.1.1 0 .1-.1.1-.2s.1-.1.1-.2v-.2c0-.1-.1-.1-.1-.1-.1 0-.2-.1-.3-.1-.1 0-.3-.1-.5-.1s-.4-.1-.5-.2c-.1 0-.3-.1-.4-.2-.1-.1-.2-.2-.2-.3 0-.1-.1-.2-.1-.4 0-.1 0-.3.1-.4.1-.1.1-.2.3-.3.1-.1.2-.2.4-.2.2-.1.3-.1.5-.1.9 0 1.4.3 1.4 1h-.7c0-.3-.3-.5-.7-.5h-.3c-.1 0-.2 0-.2.1-.1 0-.1.1-.2.1 0 .1-.1.1-.1.2v.2l.1.1c.1 0 .2.1.3.1.1 0 .3.1.5.1.2.1.4.1.5.2.2.1.3.1.4.2.1.1.2.2.2.3 0 .1.1.2.1.4s0 .3-.1.4l-.3.3c-.1.1-.3.2-.4.2 0 .2-.2.2-.4.2zM130.1 42.9h-.6v-.7h.6v.7zm0 4.1h-.6v-3.4h.6V47zM136.1 46.7c0 1.1-.5 1.7-1.5 1.7-.2 0-.4 0-.6-.1-.2 0-.3-.1-.4-.2l-.3-.3c-.1-.1-.1-.3-.1-.4h.6c0 .4.2.6.7.6.1 0 .3 0 .4-.1.1 0 .2-.1.3-.2.1-.1.1-.2.2-.4 0-.1.1-.3.1-.6v-.2c-.3.3-.6.5-1 .5-.2 0-.4 0-.6-.1-.2-.1-.3-.2-.4-.4-.1-.2-.2-.3-.3-.6-.1-.2-.1-.5-.1-.7 0-.3 0-.5.1-.8l.3-.6c.1-.2.3-.3.5-.4.2-.1.4-.1.6-.1.2 0 .4 0 .5.1.2.1.3.1.4.3v-.3h.6v3.3zm-.6-.7v-1.6c-.3-.3-.6-.4-.9-.4-.3 0-.5.1-.6.3-.2.2-.2.6-.2 1s.1.7.2 1c.1.2.4.3.6.3.2 0 .3 0 .5-.1s.3-.3.4-.5zM139.6 44c.2-.2.3-.3.5-.4.2-.1.4-.1.5-.1.8 0 1.2.4 1.2 1.3V47h-.6v-2.2-.4c0-.1-.1-.2-.1-.2-.1-.1-.1-.1-.2-.1h-.3c-.3 0-.6.2-.9.5V47h-.7v-3.4h.6v.4zM7.5 39.7c4 .5 7.8-1.9 9.1-5.5 0-.1 0-.1.1-.2h-.1c-.5.2-1 .2-1.5.2-2.6 0-4.8-2.1-4.8-4.8 0-.5.1-1 .2-1.4 0-4.3 3-8.1 7.4-9.1 1.4-.3 2.8-.5 4.1-.5 1.5 0 3 .2 4.4.5-2.8-3-6.8-4.9-11.3-4.9-8.6.2-15.5 7-15.5 15.5 0 3.3 1 6.3 2.8 8.8.4.2.8.3 1.2.5 1.3.5 2.5.8 3.9.9zm17.7-11.9c-2.2-2.9-6-4-9.3-2.9 1.2.2 2.3.9 3 1.8.2.1.3.3.5.4 3.2 2.9 4 7.7 1.8 11.6-.7 1.2-1.5 2.3-2.5 3.3-1 1.1-2.2 2.1-3.4 2.9 5.8-.1 10.8-3.4 13.4-8.2-.2-1.9-.7-3.7-1.5-5.5-.5-1.2-1.2-2.4-2-3.4zm2.2-7.4c-1.7-.6-3.6-.9-5.5-.9-1.3 0-2.6.1-3.9.4-3.3.7-5.6 3.2-6.4 6.2.4-.4.8-.7 1.4-1 .5-.3 1-.6 1.5-.8 3.9-1.8 8.7-.7 11.4 2.8.9 1.1 1.6 2.3 2.1 3.5.6 1.4 1.1 2.9 1.4 4.3.7-1.7 1-3.6 1-5.6.1-3.2-1.1-6.4-3-8.9zm-9.4 21c.9-.9 1.7-2 2.3-3.2 1.7-3 1.4-6.7-.6-9.3v.6c0 1.6-.8 2.9-1.9 3.8l-.2.2c-.1.3-.2.7-.3 1-1.5 4-5.6 6.7-10.1 6.1-1.3-.2-2.6-.5-3.8-.9 2.5 2.8 6.1 4.7 10.1 5 1.8-.8 3.3-1.9 4.5-3.3z"/>
</svg>
