<svg viewBox="0 0 141.5 62.6">
	<path d="M71.6 8.6c7.5-.1 15.1.1 21 1.7.5 3.1-3.6 7.4-5.4 9.2-6.1 6.1-17 11.7-29.3 8-2.3-.7-4.6-1.2-6.5-2.4-.9-.6-4.5-2.7-4.7-3.7-.3-1.5 6.1-5 7.4-5.8.5-.3 2-1.1 2.4-.9 2.4 3.5-2.5 3.9-2 6.1.3 2 3.3 2.9 5.1 3.5 8 2.9 15.7-.3 19.8-5 .8-.8 4.3-4.9 3-6.4-1.1-1.9-11.8-2-13.6-.5-1.8 1.5 1.3 3.9 1 6.1-.4 2.7-2 4.1-3.6 5.5-2.4-1.7-9.9-9.8-9-13.4 1.5-1.8 9-1.4 12.1-1.8.8-.1 1.6-.2 2.3-.2zm48.3 25.5c.3 0 .6.1.9.1-.5.5-.2.8-.5 1.1h-.1c0-.7-.3-1-.3-1.2zm1 0c.4.2.4.4.6.7h.1c.1-.5.1-.5.5-.7v1.1h-.1c-.4-.4-.1-.3-.5 0l-.4-.4c-.1.4 0 .2-.2.4v-1.1zm-73.2.1c-.1 2.9-2.7 2.3-5.5 2.3-4.1 0-13.4-.9-15 1.4-.8 1.2-.7 3.4-.7 5.5 0 7.6.1 8.3 7.7 8.3 1.7 0 3.4.2 4.4-.5.8-3-2.7-4.2 0-7.6.5-.6 1.4-1.9 2-1.4 2.2 1 7.8 8.1 7.1 11.2-1.7 1.1-8.8.5-11.6.5-4.6 0-12.1 1-14.7-1.1-2-1.7-1.9-6.1-1.8-9.8.2-1.7.2-3.3.4-5 .5-1.5 1.7-2.8 3-3.3 1.9-.8 5.4-.3 7.8-.3h16.9zm3.5 0c2.2-.1 4.8-.2 5.8 1 1.4 1.7.7 10.8.7 14 0 1.4.2 3.6-.3 4.5-2.6.1-5.2.2-6.1-1.3-.7-1-.4-3.4-.4-5 0-4.4.1-8.7.1-13.1 0 0 .1 0 .2-.1zm9.7 0h17.8c3 0 6.2-.3 7.9 1 1.1.8 3 4.1 2 6.5-.9 1.8-4.9 1.4-6.5 2.5-.8 2.7 3 6.8 4.4 8.5 0 .2-.1.5-.1.8-.1 0-.2.1-.3.1-2.2 0-4.4.1-6.7.1-1-1.7-6.7-7-5.7-9.6 1.1-2.2 6.7-.5 7.8-2.7.3-.6.2-1.7 0-2.4-1.1-3-4.3-2.5-8.3-2.5-1.4 0-3.5-.2-4.4.3-4.6 2.7 2.4 17-5 17-1.1 0-2.7.2-3.4-.3V39.7c.1-1.6-.2-4.4.5-5.5zm56.8 1c-2.4-1.7-16.8-1-21.5-1-1.7.7-2.8.9-3.7 2.4-1.6 2.7-1.3 13.3.4 15.4 2.2 2.9 10.3 1.7 15.3 1.7 3.9 0 8.7.6 10.4-1.7 1.1-1.4 1.4-3.9 1.4-6.4-.1-4.1.1-8.6-2.3-10.4zm-4.8 13.6c-.2.8-.9 1.8-1.6 2.3-1 .7-2.6.6-4.3.6-3.6 0-7 .4-8.2-2-.6-1.2-.5-10.3.1-11.5.5-1 1.4-1.2 2.4-1.7 3.6-.1 9.4-.8 10.9 1.4.8 1.1 1.2 8.8.7 10.9z"/>
</svg>