<svg viewBox="0 0 141.5 62.6">
  <path d="M47 10.5h-6.7l-.1.6-3.5 16.8c-.2 1-.4 1.8-.7 2.4-.3.6-.6 1.1-1 1.5-.4.4-.9.6-1.4.8-.6.2-1.2.3-2 .3-.6 0-1.1-.1-1.5-.2-.4-.1-.6-.2-.8-.4-.2-.2-.3-.4-.4-.7-.1-.3-.2-.7-.2-1.2 0-.6.1-1.3.2-2l3.5-17 .2-.9h-6.7l-.1.6L22.2 28c-.2 1.1-.4 2.1-.4 3 0 1.1.2 2.2.5 3.1.3 1 .9 1.8 1.7 2.5.8.7 1.7 1.2 2.9 1.5 1.1.3 2.5.5 4 .5 1.6 0 3.2-.2 4.5-.6 1.4-.4 2.6-1 3.7-1.9 1-.9 1.9-1.9 2.6-3.2.7-1.3 1.2-2.8 1.6-4.5l3.5-16.9.2-1zm-23.8 0H6.8l-.1.6-.8 4.1-.2.9h9.7l-2.6 12.4c-.2.9-.4 1.6-.8 2.1-.3.5-.7 1-1.1 1.3-.4.3-.8.5-1.2.7-.4.1-.8.2-1.2.2-.4 0-.9 0-1.2-.1-.4-.1-.7-.2-1-.4-.3-.1-.6-.3-.9-.5-.3-.2-.5-.4-.7-.7l-.7-.6-.6.7-2.8 3.5-.4.5.5.5c.4.4.9.8 1.5 1.2.5.3 1.1.6 1.8.9.6.2 1.3.4 2 .5.7.1 1.4.2 2.2.2 1.5 0 2.9-.2 4.2-.6 1.2-.4 2.3-1 3.3-1.8.9-.8 1.7-1.7 2.3-2.7.6-1 1.1-2.1 1.3-3.3L23 11.4l.2-.9zm44.6 7.4c0-.9-.2-1.9-.6-2.8-.4-.9-1-1.7-1.8-2.4s-1.9-1.2-3.2-1.6c-1.3-.4-2.8-.6-4.6-.6h-8.3l-.1.6-5.4 26.1-.2.9h6.7l.1-.6 1.6-7.8h2.2c2.3 0 4.3-.3 6-1 1.7-.7 3.1-1.5 4.3-2.6 1.1-1.1 2-2.4 2.5-3.8s.8-2.9.8-4.4zm-7.4 2.9c-.3.7-.7 1.2-1.2 1.7s-1.1.9-1.9 1.2c-.7.3-1.6.4-2.5.4h-1.7l1.7-8H57c.9 0 1.6.1 2.1.2.5.2.9.3 1.1.6.2.2.4.5.5.7.1.3.2.7.2 1-.1.8-.2 1.5-.5 2.2zm78.8 2.1c.7-.8 1.2-1.7 1.6-2.7.4-1 .5-2.1.5-3.2 0-1.2-.2-2.2-.7-3-.5-.8-1.1-1.5-2-2-.8-.5-1.8-.9-2.9-1.1-1.1-.2-2.3-.3-3.6-.3h-8.4l-.1.6-5.4 26.1-.2.9h6.7l.1-.6 2.1-10.2h.1c.4 0 .8 0 1.1.1.3.1.5.2.7.5.3.3.5.6.7 1.1.2.5.4 1.2.6 2l1.6 6.5.1.6h7.4l-.3-1-1.8-6.5c-.3-.9-.5-1.6-.8-2.3-.2-.7-.5-1.2-.8-1.7-.2-.4-.5-.7-.7-1 .6-.2 1.2-.4 1.7-.7 1.1-.7 2-1.3 2.7-2.1zm-5.2-3.2c-.2.5-.6.9-1 1.2-.5.3-1 .6-1.7.8-.7.2-1.5.3-2.4.3h-.9l1.2-5.8h1.8c1.6 0 2.4.3 2.7.5.3.2.6.5.6 1.4 0 .5-.1 1.1-.3 1.6zm-63.5-3.6l-3.4 16.5-1.2 5.6h6.8l1.2-5.6 3.4-16.5 1.2-5.6h-6.9l-1.1 5.6zm48.4 5.9l.2-.9h-7l-.2.9-.8 4.1-.1.6h7l.1-.6.8-4.1zm-11.5 4.7l1.1-5.6 1-4.9h11l.1-.6.9-4.2.2-.9H80.3l-.1.6-.9 4.1-.2.9h7.3l-4.3 21.1-.2.9h6.8l.1-.6 4.4-21.4h9.6l-4.3 21.1-.2.9h17.8l.1-.6.8-4.2.2-.9h-11l1.2-5.7zM22.1 52l1.2-5.9h1.5c.8 0 1.4.2 1.8.5.4.3.6.8.6 1.5v.4c0 .2 0 .4-.1.6 0 .2-.1.4-.2.7-.1.2-.2.4-.3.7-.1.2-.3.4-.5.6-.2.2-.4.4-.7.5-.3.1-.5.3-.9.3-.2.1-.6.1-1 .1h-1.4zm4.3-3.9c0-.2 0-.5-.1-.6-.1-.2-.2-.3-.3-.4-.1-.1-.3-.2-.5-.2-.2-.1-.4-.1-.7-.1H24l-.9 4.6h.6c.3 0 .6 0 .8-.1.2-.1.5-.2.6-.3.2-.1.3-.3.5-.4.1-.2.2-.3.3-.5.1-.2.2-.4.2-.5.1-.2.1-.4.1-.5 0-.2.1-.3.1-.5.1-.3.1-.4.1-.5zM35.3 52h-3.5l1.2-5.9h3.5l-.1.7h-2.6l-.4 1.8h2.5l-.1.7h-2.5l-.4 2h2.6l-.2.7zM45.4 46.1L42.1 52H41l-.8-5.9h.9l.5 4 .1 1.2.6-1.2 2.1-4h1zM51.4 52h-3.5l1.2-5.9h3.5l-.1.7h-2.6l-.4 1.8H52l-.1.7h-2.5l-.4 2h2.6l-.2.7zM59.8 52h-3.5l1.2-5.9h.8l-1.1 5.3h2.7l-.1.6zM65.7 52.1c-.6 0-1.1-.2-1.4-.5-.3-.3-.5-.8-.5-1.5 0-.3 0-.6.1-.9.1-.3.1-.6.3-.9.1-.3.3-.6.4-.9.2-.3.4-.5.6-.7.2-.2.5-.4.8-.5.3-.1.6-.2 1-.2.6 0 1.1.2 1.4.5.3.3.5.8.5 1.5 0 .3 0 .6-.1.9-.1.3-.1.6-.3.9-.1.3-.3.6-.4.9-.2.3-.4.5-.6.7-.2.2-.5.4-.8.5-.3.1-.6.2-1 .2zM68 48c0-.2 0-.4-.1-.6 0-.2-.1-.3-.2-.4l-.3-.3c-.1-.1-.3-.1-.5-.1-.3 0-.5.1-.7.2-.2.1-.4.3-.5.4-.2.2-.3.4-.4.6-.1.2-.2.5-.3.7-.1.2-.1.5-.2.7 0 .2-.1.5-.1.7 0 .2 0 .4.1.6 0 .2.1.3.2.4l.3.3c.1.1.3.1.5.1.3 0 .5-.1.7-.2.2-.1.4-.3.5-.4.2-.2.3-.4.4-.6.1-.2.2-.5.3-.7.1-.2.1-.5.2-.7.1-.2.1-.5.1-.7zM73.3 49.9l-.4 2.1h-.8l1.2-5.9H75c.3 0 .5 0 .8.1.2.1.5.1.6.3.2.1.3.3.4.5.1.2.2.4.2.7 0 .2 0 .4-.1.6-.1.2-.1.4-.2.5-.1.2-.2.3-.4.5s-.3.3-.5.4c-.2.1-.4.2-.7.3-.3.1-.5.1-.9.1h-.9zm2.8-2.3c0-.3-.1-.5-.3-.6-.2-.1-.5-.2-.9-.2H74l-.5 2.5h.7c.2 0 .5 0 .7-.1.2 0 .4-.1.5-.2.1-.1.3-.2.3-.3.1-.1.2-.2.2-.3.1-.1.1-.2.1-.4.1-.2.1-.3.1-.4zM85.5 52h-.8l.6-3.7.2-1.4-.5.8-1.4 2.4H83l-.4-2.3-.1-.9-.3 1.5-.7 3.6h-.8l1.5-5.9h1l.4 2.2.1.8.4-.8 1.3-2.2h1.1l-1 5.9zM94 52h-3.5l1.2-5.9h3.5l-.1.7h-2.6l-.5 1.8h2.5l-.1.7h-2.5l-.4 2h2.6l-.1.7zM101.2 52h-1l-1-3.7-.3-1.2-.6 3-.5 1.9H97l1.2-5.9h1l1 3.5.3 1.4.7-3.2.4-1.7h.8l-1.2 5.9zM110.6 46.8h-1.8l-1.1 5.3h-.8l1.1-5.3h-1.8l.1-.7h4.5l-.2.7z"/>
</svg>
