<svg xmlns="http://www.w3.org/2000/svg" viewBox="0 0 141.5 62.6">
  <path d="M124.8 14.6h6.1v32.9h-6.1V14.6zM135.2 14.6h6.3v32.9c-2.1-.1-4.2-.1-6.3-.2V14.6zM0 16.2c6.7-.1 14.4-.7 18.1 2.3 6.7 5.3 1.8 13.8-4.2 16l.5.5c2.8 4.1 5.7 8.2 8.5 12.4-2.4 0-6.3.5-8-.3-2.1-3.3-4.2-6.5-6.3-9.8v-7.5c4.7.2 8.5-4.7 4.4-7.5-1.4-.9-4.4-.8-6.8-.7v25.8H-.1C0 37 0 26.6 0 16.2zM94.3 30.6c-.1-.1-.1-.2-.2-.3 3.9-3 2.9-10.4-.9-12.7-3.5-2.1-11.7-1.3-17.1-1.2v31h6.3c7.1-1.1 12 .8 15.3-3.7 3.5-4.5 1.3-11.6-3.4-13.1zm-1.6 8.1c-.7 3.6-5.5 4-9.9 3.3V21.8c3.7-.2 9.7.4 7.1 4.7-.8 1.8-2.4 2.1-5.1 1.9-.1 1.9-.1 3.7-.2 5.6 4.2-.2 9 0 8.1 4.7zM101.6 28.4h6.3c-.2 5.5-1.6 15.7 4.4 14.6 4.1-.7 2.9-9.8 2.8-14.6 2.1.1 4.2.1 6.3.2.2 9.8 1.5 16.6-6.1 19.2-1.8.6-5.6.9-7.7.2-7-2.5-6.2-10.3-6-19.6z"/>
  <path d="M28.8 39h13.9c.3-14-15.8-15.2-19.9-5.1-3.1 7.8 3.8 15.8 12 14.1 3.5-.7 5-2.6 7.1-4.5v-.3c-1.6-.8-3.3-1.6-4.9-2.4-2.3 3.9-7.2 2.5-8.2-1.8zm2-6.8c2.4-2.1 5.6.8 5.6 3.3h-7.5c.1-1.7.7-2.8 1.9-3.3zM61.7 14.3c-1.2 2.2-.4 12.1-.3 15.5-7.4-4.5-14.2-2-15.7 6.8-1.6 9.4 9.7 13.8 15.5 8.5.1.8.1 1.5.2 2.3 2 .1 4.1.1 6.1.2.1-11 .1-22.1.2-33.1-2.1-.1-4-.2-6-.2zm-4.2 28.4c-4 .8-6.6-4.3-4.7-7.7.8-1.4 2.1-1.7 3.7-2.4 6.1.3 6.5 8.9 1 10.1z"/>
</svg>
