<svg xmlns="http://www.w3.org/2000/svg" viewBox="0 0 18 18">
	<path d="M12.9.2H5.1C2.4.2.2 2.4.2 5.1v7.8c0 2.7 2.2 4.9 4.9 4.9h7.8c2.7 0 4.9-2.2 4.9-4.9V5.1c0-2.7-2.2-4.9-4.9-4.9zm3.5 12.7c0 1.9-1.6 3.5-3.5 3.5H5.1c-1.9 0-3.5-1.6-3.5-3.5V5.1c0-1.9 1.6-3.5 3.5-3.5h7.8c1.9 0 3.5 1.6 3.5 3.5v7.8z"/>
	<path d="M9 4.4C6.5 4.4 4.4 6.5 4.4 9c0 2.5 2 4.6 4.6 4.6s4.6-2 4.6-4.6c0-2.5-2.1-4.6-4.6-4.6zm0 7.7c-1.7 0-3.1-1.4-3.1-3.1S7.3 5.9 9 5.9s3.1 1.4 3.1 3.1-1.4 3.1-3.1 3.1z"/>
	<circle cx="13.7" cy="4.4" r="1.2"/>
</svg>